# Blender v2.93.5 OBJ File: 'Tag1_finish.blend'
# www.blender.org
mtllib tag1.mtl
o Grid
v -15.000000 3.000000 0.000000
v -15.000000 0.000000 0.000000
v -15.000000 -3.000001 0.000000
v -12.000000 3.000000 0.000000
v -12.000000 0.000000 0.000000
v -12.000000 -3.000001 0.000000
v -9.000000 9.000000 0.000000
v -9.000000 6.000000 0.000000
v -9.000000 3.000000 0.000000
v -9.000000 0.000000 0.000000
v -9.000000 -3.000001 0.000000
v -9.000000 -6.000000 0.000000
v -9.000000 -9.000000 0.000000
v -6.000000 9.000000 0.000000
v -6.000000 6.000000 0.000000
v -6.000000 3.000000 0.000000
v -6.000000 -3.000001 0.000000
v -6.000000 -6.000000 0.000000
v -6.000000 -9.000000 0.000000
v -3.000000 15.000000 0.000000
v -3.000000 12.000000 0.000000
v -3.000000 9.000000 0.000000
v -3.000000 6.000000 0.000000
v -3.000000 3.000000 0.000000
v -3.000000 -3.000001 0.000000
v -3.000000 -6.000000 0.000000
v -3.000000 -9.000000 0.000000
v -3.000000 -12.000001 0.000000
v -3.000000 -15.000000 0.000000
v 0.000000 15.000000 0.000000
v 0.000000 12.000000 0.000000
v 0.000000 9.000000 0.000000
v 0.000000 -9.000000 0.000000
v 0.000000 -12.000001 0.000000
v 0.000000 -15.000000 0.000000
v 3.000001 15.000000 0.000000
v 3.000001 12.000000 0.000000
v 3.000001 9.000000 0.000000
v 3.000001 6.000000 0.000000
v 3.000001 3.000000 0.000000
v 3.000001 -3.000001 0.000000
v 3.000001 -6.000000 0.000000
v 3.000001 -9.000000 0.000000
v 3.000001 -12.000001 0.000000
v 3.000001 -15.000000 0.000000
v 6.000000 9.000000 0.000000
v 6.000000 6.000000 0.000000
v 6.000000 3.000000 0.000000
v 6.000000 -3.000001 0.000000
v 6.000000 -6.000000 0.000000
v 6.000000 -9.000000 0.000000
v 9.000000 9.000000 0.000000
v 9.000000 6.000000 0.000000
v 9.000000 3.000000 0.000000
v 9.000000 0.000000 0.000000
v 9.000000 -3.000001 0.000000
v 9.000000 -6.000000 0.000000
v 9.000000 -9.000000 0.000000
v 12.000001 3.000000 0.000000
v 12.000001 0.000000 0.000000
v 12.000001 -3.000001 0.000000
v 15.000000 3.000000 0.000000
v 15.000000 0.000000 0.000000
v 15.000000 -3.000001 0.000000
v 2.500000 -7.437500 0.000000
v -2.500000 -7.444394 0.000000
v 7.437500 2.500000 0.000000
v 7.444394 -2.500000 0.000000
v -2.500000 7.437500 0.000000
v 2.500000 7.444394 0.000000
v -5.055606 10.000000 0.000000
v -7.437500 -2.500000 0.000000
v -10.000000 5.062500 0.000000
v -7.444394 2.500000 0.000000
v 5.055606 -10.000000 0.000000
v -10.000000 -5.055606 0.000000
v 10.000000 -5.062500 0.000000
v -5.062500 -10.000000 0.000000
v 10.000000 5.055606 0.000000
v 5.062500 10.000000 0.000000
v -9.999999 -9.999999 0.000000
v -10.000000 -9.999999 0.000000
v -9.999999 -10.000000 0.000000
v 10.000000 -6.000000 0.000000
v 10.000000 -9.000000 0.000000
v 10.000000 -10.000000 0.000000
v 10.000000 10.000000 0.000000
v 10.000000 9.000000 0.000000
v 10.000000 6.000000 0.000000
v -10.000000 10.000000 0.000000
v -10.000000 9.000000 0.000000
v -10.000000 6.000000 0.000000
v -10.000000 -6.000000 0.000000
v -10.000000 -9.000000 0.000000
v 2.500000 6.000000 0.000000
v 2.500000 3.000000 0.000000
v 2.500000 2.500000 0.000000
v 2.500000 -2.500000 0.000000
v 2.500000 -3.000001 0.000000
v 2.500000 -6.000000 0.000000
v -6.000000 2.500000 0.000000
v -3.000000 2.500000 0.000000
v -2.500000 2.500000 0.000000
v 6.000000 2.500000 0.000000
v 3.000001 2.500000 0.000000
v 9.000000 -10.000000 0.000000
v 6.000000 -10.000000 0.000000
v -9.000000 -10.000000 0.000000
v -6.000000 -10.000000 0.000000
v -2.500000 6.000000 0.000000
v -2.500000 3.000000 0.000000
v -2.500000 -2.500000 0.000000
v -2.500000 -3.000001 0.000000
v -2.500000 -6.000000 0.000000
v -9.000000 10.000000 0.000000
v -6.000000 10.000000 0.000000
v 6.000000 10.000000 0.000000
v 9.000000 10.000000 0.000000
v -6.000000 -2.500000 0.000000
v -3.000000 -2.500000 0.000000
v 3.000001 -2.500000 0.000000
v 6.000000 -2.500000 0.000000
v -2.500000 2.500000 2.000000
v 2.500000 2.500000 2.000000
v -2.500000 -2.500000 2.000000
v 2.500000 -2.500000 2.000000
v -2.500000 -7.500000 0.000000
v -2.500000 -7.500000 0.002789
v 2.500000 -7.500000 0.000000
v 7.500000 -2.500000 0.000000
v 7.500000 -2.500000 0.002789
v 7.500000 2.500000 0.000000
v 2.500000 7.500000 0.000000
v 2.500000 7.500000 0.002789
v -2.500000 7.500000 0.000000
v -7.500000 2.500000 0.000000
v -7.500000 2.500000 0.002789
v -7.500000 -2.500000 0.000000
v -10.000000 -10.000000 0.000000
v -10.000000 -10.000000 2.000000
v -15.000000 -10.000000 2.000000
v -10.000000 -5.000000 0.000000
v -10.000000 -5.000000 0.002789
v -15.000000 -5.000000 0.000000
v -10.000000 -15.000000 2.000000
v -5.000000 -15.000000 0.000000
v -5.000000 -15.000000 0.002789
v -5.000000 -10.000000 0.000000
v -14.999999 -14.999999 2.000000
v -10.000000 10.000000 2.000000
v -10.000000 15.000000 2.000000
v -5.000000 10.000000 0.000000
v -5.000000 10.000000 0.002789
v -5.000000 15.000000 0.000000
v -15.000000 10.000000 2.000000
v -15.000000 5.000000 0.000000
v -15.000000 5.000000 0.002789
v -10.000000 5.000000 0.000000
v -15.000000 15.000000 2.000000
v 10.000000 -10.000000 2.000000
v 10.000000 -15.000000 2.000000
v 5.000000 -10.000000 0.000000
v 5.000000 -10.000000 0.002789
v 5.000000 -15.000000 0.000000
v 15.000000 -10.000000 2.000000
v 15.000000 -5.000000 0.000000
v 15.000000 -5.000000 0.002789
v 10.000000 -5.000000 0.000000
v 15.000000 -15.000000 2.000000
v 10.000000 10.000000 2.000000
v 15.000000 10.000000 2.000000
v 10.000000 5.000000 0.000000
v 10.000000 5.000000 0.002789
v 15.000000 5.000000 0.000000
v 10.000000 15.000000 2.000000
v 5.000000 15.000000 0.000000
v 5.000000 15.000000 0.002789
v 5.000000 10.000000 0.000000
v 15.000000 15.000000 2.000000
v -14.999999 -10.000000 2.000000
v -10.000000 -14.999999 2.000000
v 0.000000 -7.500000 0.000000
v -5.000000 12.000000 0.000000
v 7.500000 0.000000 0.000000
v -12.000000 5.000000 0.000000
v 5.000000 -12.000001 0.000000
v 0.000000 7.500000 0.000000
v 12.000001 -5.000000 0.000000
v -7.500000 0.000000 0.000000
v 12.000001 5.000000 0.000000
v -12.000000 -5.000000 0.000000
v 5.000000 12.000000 0.000000
v -5.000000 -12.000001 0.000000
vt 0.400000 0.100000
vt 0.333333 0.000000
vt 0.400000 0.000000
vt 0.500000 0.000000
vt 0.600000 0.000000
vt 0.500000 0.100000
vt 0.600000 0.100000
vt 0.666667 0.000000
vt 0.666667 0.100000
vt 0.200000 0.200000
vt 0.166667 0.166667
vt 0.200000 0.166667
vt 0.300000 0.200000
vt 0.300000 0.166667
vt 0.333333 0.166667
vt 0.400000 0.200000
vt 0.500000 0.200000
vt 0.700000 0.200000
vt 0.600000 0.200000
vt 0.666667 0.166667
vt 0.800000 0.200000
vt 0.700000 0.166667
vt 0.800000 0.166667
vt 0.833333 0.166667
vt 0.166667 0.300000
vt 0.166667 0.200000
vt 0.200000 0.300000
vt 0.300000 0.300000
vt 0.500000 0.250000
vt 0.416667 0.250000
vt 0.583333 0.250000
vt 0.600000 0.300000
vt 0.700000 0.300000
vt 0.800000 0.300000
vt 0.833333 0.200000
vt 0.833333 0.300000
vt 0.100000 0.400000
vt 0.000000 0.333333
vt 0.100000 0.333333
vt 0.166667 0.333333
vt 0.200000 0.400000
vt 0.400000 0.300000
vt 0.300000 0.400000
vt 0.400000 0.400000
vt 0.416667 0.300000
vt 0.416667 0.400000
vt 0.583333 0.400000
vt 0.583333 0.300000
vt 0.600000 0.400000
vt 0.700000 0.400000
vt 0.833333 0.333333
vt 0.900000 0.400000
vt 0.800000 0.400000
vt 1.000000 0.400000
vt 0.900000 0.333333
vt 1.000000 0.333333
vt 0.000000 0.500000
vt 0.000000 0.400000
vt 0.100000 0.500000
vt 0.250000 0.416667
vt 0.200000 0.500000
vt 0.400000 0.416667
vt 0.300000 0.416667
vt 0.416667 0.416667
vt 0.600000 0.416667
vt 0.583333 0.416667
vt 0.700000 0.416667
vt 0.750000 0.416667
vt 0.800000 0.500000
vt 0.900000 0.500000
vt 0.000000 0.600000
vt 0.100000 0.600000
vt 0.300000 0.600000
vt 0.200000 0.600000
vt 0.250000 0.583333
vt 0.400000 0.600000
vt 0.300000 0.583333
vt 0.400000 0.583333
vt 0.416667 0.600000
vt 0.416667 0.583333
vt 0.600000 0.600000
vt 0.583333 0.583333
vt 0.600000 0.583333
vt 0.700000 0.600000
vt 0.700000 0.583333
vt 0.750000 0.583333
vt 0.800000 0.600000
vt 1.000000 0.500000
vt 0.900000 0.600000
vt 0.100000 0.666667
vt 0.000000 0.666667
vt 0.166667 0.666667
vt 0.200000 0.700000
vt 0.300000 0.700000
vt 0.400000 0.700000
vt 0.416667 0.700000
vt 0.583333 0.700000
vt 0.583333 0.600000
vt 0.600000 0.700000
vt 0.700000 0.700000
vt 0.900000 0.666667
vt 0.833333 0.666667
vt 1.000000 0.666667
vt 0.166667 0.800000
vt 0.166667 0.700000
vt 0.200000 0.800000
vt 0.300000 0.800000
vt 0.416667 0.750000
vt 0.500000 0.800000
vt 0.400000 0.800000
vt 0.500000 0.750000
vt 0.583333 0.750000
vt 0.600000 0.800000
vt 0.800000 0.700000
vt 0.700000 0.800000
vt 0.800000 0.800000
vt 0.833333 0.700000
vt 0.833333 0.800000
vt 0.200000 0.833333
vt 0.166667 0.833333
vt 0.300000 0.833333
vt 0.333333 0.833333
vt 0.400000 0.900000
vt 0.500000 0.900000
vt 0.666667 0.833333
vt 0.600000 0.900000
vt 0.800000 0.833333
vt 0.700000 0.833333
vt 0.833333 0.833333
vt 0.333333 1.000000
vt 0.333333 0.900000
vt 0.400000 1.000000
vt 0.500000 1.000000
vt 0.666667 1.000000
vt 0.600000 1.000000
vt 0.875000 0.500000
vt 0.625000 0.750000
vt 0.625000 0.500000
vt 0.375000 0.425000
vt 0.375000 0.275000
vt 0.625000 0.250000
vt 0.375349 0.750000
vt 0.375000 0.625000
vt 0.375000 0.500000
vt 0.375000 0.752780
vt 0.375000 0.750000
vt 0.875000 0.500000
vt 0.375000 0.500000
vt 0.375000 0.500000
vt 0.625000 0.250000
vt 0.375349 0.750000
vt 0.375000 0.750000
vt 0.375000 0.750000
vt 0.375000 1.000000
vt 0.375000 1.000000
vt 0.375000 0.500000
vt 0.625000 0.250000
vt 0.375000 0.496875
vt 0.375000 0.425000
vt 0.375349 0.750000
vt 0.375000 0.625000
vt 0.375000 0.500000
vt 0.375000 0.825000
vt 0.625000 1.000000
vt 0.875000 0.500000
vt 0.625000 0.250000
vt 0.375000 0.500000
vt 0.375000 0.500000
vt 0.375349 0.750000
vt 0.375000 0.750000
vt 0.375000 0.750000
vt 0.375000 1.000000
vt 0.625000 1.000000
vt 0.875000 0.500000
vt 0.375000 0.500000
vt 0.375349 0.750000
vt 0.375000 0.650000
vt 0.375000 0.500000
vt 0.375000 0.750000
vt 0.375000 0.752780
vt 0.875000 0.500000
vt 0.875000 0.500000
vt 0.375000 0.500000
vt 0.375000 0.500000
vt 0.625000 0.250000
vt 0.375349 0.750000
vt 0.375000 0.750000
vt 0.375000 0.750000
vt 0.875000 0.500000
vt 0.875000 0.750000
vt 0.625000 0.750000
vt 0.875000 0.750000
vt 0.375349 0.750000
vt 0.375000 0.750000
vt 0.375000 0.750000
vt 0.375000 1.000000
vt 0.375000 1.000000
vt 0.875000 0.500000
vt 0.375000 0.500000
vt 0.375000 0.450000
vt 0.375000 0.300000
vt 0.625000 0.250000
vt 0.375349 0.750000
vt 0.375000 0.600000
vt 0.375000 0.500000
vt 0.875000 0.500000
vt 0.625000 0.750000
vt 0.625000 0.500000
vt 0.375349 0.750000
vt 0.375000 0.750000
vt 0.375000 0.750000
vt 0.375000 1.000000
vt 0.375000 1.000000
vt 0.875000 0.500000
vt 0.375000 0.500000
vt 0.625000 0.250000
vt 0.375000 0.496875
vt 0.375000 0.450000
vt 0.375349 0.750000
vt 0.375000 0.600000
vt 0.375000 0.500000
vt 0.875000 0.500000
vt 0.625000 0.750000
vt 0.625000 0.500000
vt 0.375349 0.750000
vt 0.375000 0.650000
vt 0.375000 0.500000
vt 0.375000 0.752780
vt 0.375000 0.750000
vt 0.875000 0.500000
vt 0.625000 0.250000
vt 0.375000 0.500000
vt 0.375000 0.500000
vt 0.375349 0.750000
vt 0.375000 0.750000
vt 0.375000 0.750000
vt 0.875000 0.500000
vt 0.375000 0.500000
vt 0.625000 0.750000
vt 0.625000 0.500000
vt 0.333333 0.100000
vt 0.331250 0.166667
vt 0.668520 0.166667
vt 0.833333 0.166667
vt 0.833333 0.166667
vt 0.416667 0.251854
vt 0.583333 0.252083
vt 0.166667 0.331480
vt 0.833333 0.331250
vt 0.250000 0.500000
vt 0.252083 0.416667
vt 0.748147 0.416667
vt 0.750000 0.500000
vt 0.251854 0.583333
vt 0.747917 0.583333
vt 1.000000 0.600000
vt 0.166667 0.668750
vt 0.833333 0.668520
vt 0.416667 0.747917
vt 0.583333 0.748146
vt 0.331480 0.833333
vt 0.666667 0.900000
vt 0.668750 0.833333
vt 0.875000 0.750000
vt 0.375000 0.496875
vt 0.375000 0.250000
vt 0.625000 1.000000
vt 0.375000 0.825000
vt 0.375000 1.000000
vt 0.375000 0.975000
vt 0.875000 0.750000
vt 0.375000 0.500000
vt 0.375000 0.500000
vt 0.375000 0.750000
vt 0.625000 1.000000
vt 0.375000 1.000000
vt 0.375000 1.000000
vt 0.375000 1.000000
vt 0.875000 0.750000
vt 0.375000 0.275000
vt 0.375000 0.250000
vt 0.375000 0.750000
vt 0.375000 1.000000
vt 0.375000 0.975000
vt 0.375000 0.752780
vt 0.875000 0.750000
vt 0.375000 0.500000
vt 0.375000 0.500000
vt 0.375000 0.750000
vt 0.375000 1.000000
vt 0.375000 1.000000
vt 0.375000 1.000000
vt 0.375000 1.000000
vt 0.625000 1.000000
vt 0.375000 1.000000
vt 0.375000 1.000000
vt 0.375000 0.950000
vt 0.375000 0.800000
vt 0.875000 0.750000
vt 0.375000 0.500000
vt 0.375000 0.500000
vt 0.375000 0.500000
vt 0.375000 0.500000
vt 0.375000 0.750000
vt 0.875000 0.750000
vt 0.625000 0.500000
vt 0.375000 0.750000
vt 0.625000 1.000000
vt 0.375000 1.000000
vt 0.375000 1.000000
vt 0.375000 1.000000
vt 0.875000 0.750000
vt 0.375000 0.496875
vt 0.375000 0.250000
vt 0.375000 0.750000
vt 0.875000 0.750000
vt 0.875000 0.750000
vt 0.375000 0.750000
vt 0.375000 1.000000
vt 0.375000 1.000000
vt 0.625000 1.000000
vt 0.375000 1.000000
vt 0.875000 0.750000
vt 0.375000 0.300000
vt 0.375000 0.250000
vt 0.375000 0.750000
vt 0.875000 0.750000
vt 0.875000 0.750000
vt 0.625000 1.000000
vt 0.375000 0.950000
vt 0.375000 1.000000
vt 0.375000 0.800000
vt 0.875000 0.750000
vt 0.375000 0.500000
vt 0.375000 0.500000
vt 0.375000 0.750000
vt 0.875000 0.750000
vt 0.875000 0.750000
vn 0.0000 0.0000 1.0000
vn 1.0000 0.0000 0.0000
vn 0.0000 -1.0000 0.0000
vn -1.0000 0.0000 0.0000
vn 0.0005 -0.3714 0.9285
vn 0.0000 1.0000 -0.0000
vn 0.3714 0.0005 0.9285
vn -0.0005 0.3714 0.9285
vn -0.3714 -0.0005 0.9285
vn 0.0000 1.0000 0.0002
vn 0.3709 0.0000 0.9287
vn 0.0000 -1.0000 0.0003
vn 0.0000 -0.3709 0.9287
vn 0.0000 0.3709 0.9287
vn -0.3709 0.0000 0.9287
usemtl None
s off
f 4/1/1 156/2/1 1/3/1
f 2/4/1 4/1/1 1/3/1
f 3/5/1 5/6/1 2/4/1
f 6/7/1 144/8/1 191/9/1
f 7/10/1 90/11/1 91/12/1
f 8/13/1 91/12/1 92/14/1
f 158/15/1 4/1/1 9/16/1
f 5/6/1 9/16/1 4/1/1
f 6/7/1 10/17/1 5/6/1
f 12/18/1 11/19/1 142/20/1
f 13/21/1 93/22/1 94/23/1
f 13/21/1 94/23/1 81/24/1
f 7/10/1 116/25/1 115/26/1
f 8/13/1 14/27/1 7/10/1
f 9/16/1 15/28/1 8/13/1
f 10/17/1 189/29/1 136/30/1
f 138/31/1 10/17/1 11/19/1
f 12/18/1 17/32/1 11/19/1
f 13/21/1 18/33/1 12/18/1
f 19/34/1 108/35/1 109/36/1
f 21/37/1 154/38/1 183/39/1
f 21/37/1 183/39/1 152/40/1
f 15/28/1 22/41/1 14/27/1
f 16/42/1 23/43/1 15/28/1
f 24/44/1 101/45/1 102/46/1
f 17/32/1 120/47/1 119/48/1
f 18/33/1 25/49/1 17/32/1
f 19/34/1 26/50/1 18/33/1
f 148/51/1 28/52/1 27/53/1
f 29/54/1 193/55/1 146/56/1
f 21/37/1 30/57/1 20/58/1
f 22/41/1 31/59/1 21/37/1
f 135/60/1 32/61/1 22/41/1
f 23/43/1 111/62/1 110/63/1
f 24/44/1 103/64/1 111/62/1
f 120/47/1 113/65/1 112/66/1
f 25/49/1 114/67/1 113/65/1
f 26/50/1 27/53/1 127/68/1
f 28/52/1 33/69/1 27/53/1
f 29/54/1 34/70/1 28/52/1
f 31/59/1 36/71/1 30/57/1
f 32/61/1 37/72/1 31/59/1
f 39/73/1 38/74/1 133/75/1
f 40/76/1 95/77/1 96/78/1
f 105/79/1 96/78/1 97/80/1
f 41/81/1 98/82/1 99/83/1
f 42/84/1 99/83/1 100/85/1
f 129/86/1 33/69/1 43/87/1
f 34/70/1 43/87/1 33/69/1
f 35/88/1 44/89/1 34/70/1
f 36/71/1 192/90/1 176/91/1
f 178/92/1 37/72/1 38/74/1
f 39/73/1 46/93/1 38/74/1
f 40/76/1 47/94/1 39/73/1
f 48/95/1 105/79/1 104/96/1
f 41/81/1 122/97/1 121/98/1
f 42/84/1 49/99/1 41/81/1
f 43/87/1 50/100/1 42/84/1
f 44/89/1 186/101/1 162/102/1
f 44/89/1 164/103/1 186/101/1
f 46/93/1 118/104/1 117/105/1
f 47/94/1 52/106/1 46/93/1
f 48/95/1 53/107/1 47/94/1
f 132/108/1 55/109/1 54/110/1
f 55/109/1 184/111/1 130/112/1
f 50/100/1 56/113/1 49/99/1
f 51/114/1 57/115/1 50/100/1
f 58/116/1 107/117/1 106/118/1
f 118/104/1 88/119/1 87/120/1
f 52/106/1 89/121/1 88/119/1
f 53/107/1 54/110/1 172/122/1
f 55/109/1 59/123/1 54/110/1
f 56/113/1 60/124/1 55/109/1
f 168/125/1 61/126/1 56/113/1
f 57/115/1 85/127/1 84/128/1
f 85/127/1 106/118/1 86/129/1
f 59/123/1 174/130/1 190/131/1
f 60/124/1 62/132/1 59/123/1
f 61/126/1 63/133/1 60/124/1
f 61/126/1 166/134/1 64/135/1
f 124/136/1 125/137/1 126/138/1
f 100/139/2 99/140/2 126/141/2
f 128/142/3 182/143/3 129/144/3
f 66/145/4 127/146/4 128/142/4
f 126/147/5 128/142/5 129/144/5
f 104/148/6 105/149/6 124/150/6
f 131/151/2 184/152/2 132/153/2
f 68/154/3 130/155/3 131/151/3
f 124/136/7 131/151/7 132/156/7
f 123/157/4 69/158/4 110/159/4
f 134/160/6 187/161/6 135/162/6
f 95/163/2 134/160/2 124/164/2
f 123/165/8 134/160/8 135/162/8
f 125/166/3 72/167/3 119/168/3
f 137/169/4 189/170/4 138/171/4
f 101/172/6 137/169/6 123/173/6
f 125/174/9 137/169/9 138/175/9
f 143/176/10 191/177/10 144/178/10
f 142/179/2 143/176/2 76/180/2
f 144/178/1 141/181/1 180/182/1
f 109/183/6 108/184/6 140/185/6
f 147/186/2 193/187/2 148/188/2
f 147/186/11 140/189/11 181/190/11
f 149/191/1 140/189/1 180/192/1
f 153/193/2 183/194/2 154/195/2
f 71/196/3 152/197/3 153/193/3
f 151/198/7 153/193/7 154/199/7
f 92/200/2 91/201/2 150/202/2
f 157/203/12 185/204/12 158/205/12
f 150/206/5 157/203/5 158/205/5
f 150/206/1 159/207/1 155/208/1
f 163/209/4 186/210/4 164/211/4
f 107/212/6 75/213/6 163/209/6
f 161/214/9 163/209/9 164/215/9
f 160/216/4 77/217/4 84/218/4
f 167/219/6 188/220/6 168/221/6
f 160/222/8 167/219/8 168/221/8
f 160/222/1 169/223/1 165/224/1
f 173/225/3 190/226/3 174/227/3
f 79/228/4 172/229/4 173/225/4
f 171/230/5 173/225/5 174/227/5
f 170/231/3 80/232/3 117/233/3
f 177/234/4 192/235/4 178/236/4
f 170/237/9 177/234/9 178/238/9
f 170/237/1 179/239/1 175/240/1
f 4/1/1 185/241/1 156/2/1
f 2/4/1 5/6/1 4/1/1
f 3/5/1 6/7/1 5/6/1
f 6/7/1 3/5/1 144/8/1
f 7/10/1 115/26/1 90/11/1
f 8/13/1 7/10/1 91/12/1
f 158/15/1 185/241/1 4/1/1
f 9/16/1 8/13/1 158/15/1
f 8/13/1 92/14/1 73/242/1
f 73/242/1 158/15/1 8/13/1
f 5/6/1 10/17/1 9/16/1
f 6/7/1 11/19/1 10/17/1
f 76/243/1 93/22/1 12/18/1
f 11/19/1 6/7/1 142/20/1
f 6/7/1 191/9/1 142/20/1
f 142/20/1 76/243/1 12/18/1
f 13/21/1 12/18/1 93/22/1
f 94/23/1 82/244/1 81/24/1
f 81/24/1 83/245/1 108/35/1
f 108/35/1 13/21/1 81/24/1
f 7/10/1 14/27/1 116/25/1
f 8/13/1 15/28/1 14/27/1
f 9/16/1 16/42/1 15/28/1
f 136/30/1 74/246/1 16/42/1
f 74/246/1 101/45/1 16/42/1
f 136/30/1 16/42/1 9/16/1
f 9/16/1 10/17/1 136/30/1
f 138/31/1 189/29/1 10/17/1
f 11/19/1 17/32/1 138/31/1
f 17/32/1 119/48/1 72/247/1
f 72/247/1 138/31/1 17/32/1
f 12/18/1 18/33/1 17/32/1
f 13/21/1 19/34/1 18/33/1
f 19/34/1 13/21/1 108/35/1
f 21/37/1 20/58/1 154/38/1
f 152/40/1 71/248/1 14/27/1
f 71/248/1 116/25/1 14/27/1
f 152/40/1 14/27/1 22/41/1
f 22/41/1 21/37/1 152/40/1
f 15/28/1 23/43/1 22/41/1
f 16/42/1 24/44/1 23/43/1
f 24/44/1 16/42/1 101/45/1
f 17/32/1 25/49/1 120/47/1
f 18/33/1 26/50/1 25/49/1
f 19/34/1 27/53/1 26/50/1
f 148/51/1 193/55/1 28/52/1
f 27/53/1 19/34/1 148/51/1
f 19/34/1 109/36/1 78/249/1
f 78/249/1 148/51/1 19/34/1
f 29/54/1 28/52/1 193/55/1
f 21/37/1 31/59/1 30/57/1
f 22/41/1 32/61/1 31/59/1
f 135/60/1 187/250/1 32/61/1
f 22/41/1 23/43/1 135/60/1
f 23/43/1 110/63/1 69/251/1
f 69/251/1 135/60/1 23/43/1
f 23/43/1 24/44/1 111/62/1
f 24/44/1 102/46/1 103/64/1
f 120/47/1 25/49/1 113/65/1
f 25/49/1 26/50/1 114/67/1
f 66/252/1 114/67/1 26/50/1
f 27/53/1 33/69/1 127/68/1
f 33/69/1 182/253/1 127/68/1
f 127/68/1 66/252/1 26/50/1
f 28/52/1 34/70/1 33/69/1
f 29/54/1 35/88/1 34/70/1
f 31/59/1 37/72/1 36/71/1
f 32/61/1 38/74/1 37/72/1
f 70/254/1 95/77/1 39/73/1
f 38/74/1 32/61/1 133/75/1
f 32/61/1 187/250/1 133/75/1
f 133/75/1 70/254/1 39/73/1
f 40/76/1 39/73/1 95/77/1
f 105/79/1 40/76/1 96/78/1
f 41/81/1 121/98/1 98/82/1
f 42/84/1 41/81/1 99/83/1
f 129/86/1 182/253/1 33/69/1
f 43/87/1 42/84/1 129/86/1
f 42/84/1 100/85/1 65/255/1
f 65/255/1 129/86/1 42/84/1
f 34/70/1 44/89/1 43/87/1
f 35/88/1 45/256/1 44/89/1
f 36/71/1 37/72/1 192/90/1
f 178/92/1 192/90/1 37/72/1
f 38/74/1 46/93/1 178/92/1
f 46/93/1 117/105/1 80/257/1
f 80/257/1 178/92/1 46/93/1
f 39/73/1 47/94/1 46/93/1
f 40/76/1 48/95/1 47/94/1
f 48/95/1 40/76/1 105/79/1
f 41/81/1 49/99/1 122/97/1
f 42/84/1 50/100/1 49/99/1
f 43/87/1 51/114/1 50/100/1
f 162/102/1 75/258/1 51/114/1
f 75/258/1 107/117/1 51/114/1
f 162/102/1 51/114/1 43/87/1
f 43/87/1 44/89/1 162/102/1
f 44/89/1 45/256/1 164/103/1
f 46/93/1 52/106/1 118/104/1
f 47/94/1 53/107/1 52/106/1
f 48/95/1 54/110/1 53/107/1
f 132/108/1 184/111/1 55/109/1
f 54/110/1 48/95/1 132/108/1
f 48/95/1 104/96/1 67/259/1
f 67/259/1 132/108/1 48/95/1
f 130/112/1 68/260/1 49/99/1
f 68/260/1 122/97/1 49/99/1
f 130/112/1 49/99/1 56/113/1
f 56/113/1 55/109/1 130/112/1
f 50/100/1 57/115/1 56/113/1
f 51/114/1 58/116/1 57/115/1
f 58/116/1 51/114/1 107/117/1
f 118/104/1 52/106/1 88/119/1
f 52/106/1 53/107/1 89/121/1
f 79/261/1 89/121/1 53/107/1
f 54/110/1 59/123/1 172/122/1
f 59/123/1 190/131/1 172/122/1
f 172/122/1 79/261/1 53/107/1
f 55/109/1 60/124/1 59/123/1
f 56/113/1 61/126/1 60/124/1
f 168/125/1 188/262/1 61/126/1
f 56/113/1 57/115/1 168/125/1
f 57/115/1 84/128/1 77/263/1
f 77/263/1 168/125/1 57/115/1
f 57/115/1 58/116/1 85/127/1
f 85/127/1 58/116/1 106/118/1
f 59/123/1 62/132/1 174/130/1
f 60/124/1 63/133/1 62/132/1
f 61/126/1 64/135/1 63/133/1
f 61/126/1 188/262/1 166/134/1
f 124/136/1 123/264/1 125/137/1
f 129/144/2 65/265/2 126/141/2
f 65/265/2 100/139/2 126/141/2
f 99/140/2 98/266/2 126/141/2
f 128/142/3 127/146/3 182/143/3
f 128/142/4 125/267/4 114/268/4
f 125/267/4 112/269/4 113/270/4
f 113/270/4 114/268/4 125/267/4
f 114/268/4 66/145/4 128/142/4
f 126/147/13 125/271/13 128/142/13
f 132/156/6 67/272/6 124/150/6
f 67/272/6 104/148/6 124/150/6
f 105/149/6 97/273/6 124/150/6
f 131/151/2 130/274/2 184/152/2
f 131/151/3 126/275/3 122/276/3
f 126/275/3 98/277/3 121/278/3
f 121/278/3 122/276/3 126/275/3
f 122/276/3 68/154/3 131/151/3
f 124/136/11 126/279/11 131/151/11
f 123/157/4 135/162/4 69/158/4
f 110/159/4 111/280/4 123/157/4
f 111/280/4 103/281/4 123/157/4
f 134/160/6 133/282/6 187/161/6
f 97/283/2 96/284/2 124/164/2
f 96/284/2 95/163/2 124/164/2
f 70/285/2 133/282/2 134/160/2
f 95/163/2 70/285/2 134/160/2
f 123/165/14 124/286/14 134/160/14
f 125/166/3 138/175/3 72/167/3
f 119/168/3 120/287/3 125/166/3
f 120/287/3 112/288/3 125/166/3
f 137/169/4 136/289/4 189/170/4
f 103/290/6 102/291/6 123/173/6
f 102/291/6 101/172/6 123/173/6
f 74/292/6 136/293/6 137/169/6
f 101/172/6 74/292/6 137/169/6
f 125/174/15 123/264/15 137/169/15
f 143/176/6 142/179/6 191/177/6
f 140/294/2 139/295/2 82/296/2
f 94/297/2 93/298/2 143/176/2
f 93/298/2 76/180/2 143/176/2
f 94/297/2 143/176/2 140/294/2
f 140/294/2 82/296/2 94/297/2
f 180/182/14 140/299/14 143/176/14
f 143/176/8 144/178/8 180/182/8
f 148/300/6 78/301/6 140/185/6
f 78/301/6 109/183/6 140/185/6
f 108/184/6 83/302/6 140/185/6
f 83/302/1 139/303/1 140/185/1
f 147/186/2 146/304/2 193/187/2
f 181/190/2 145/305/2 147/186/2
f 147/186/7 148/300/7 140/189/7
f 149/191/1 181/306/1 140/189/1
f 153/193/2 152/307/2 183/194/2
f 153/193/3 150/308/3 115/309/3
f 150/308/3 90/310/3 115/309/3
f 115/309/3 116/311/3 153/193/3
f 116/311/3 71/196/3 153/193/3
f 151/198/11 150/312/11 153/193/11
f 158/205/2 73/313/2 150/202/2
f 73/313/2 92/200/2 150/202/2
f 91/201/2 90/314/2 150/202/2
f 157/203/3 156/315/3 185/204/3
f 150/206/13 155/316/13 157/203/13
f 150/206/1 151/317/1 159/207/1
f 163/209/4 162/318/4 186/210/4
f 86/319/6 106/320/6 160/321/6
f 106/320/6 107/212/6 163/209/6
f 160/321/6 106/320/6 163/209/6
f 75/213/6 162/322/6 163/209/6
f 161/214/15 160/323/15 163/209/15
f 160/216/4 168/221/4 77/217/4
f 84/218/4 85/324/4 160/216/4
f 85/324/4 86/325/4 160/216/4
f 167/219/6 166/326/6 188/220/6
f 160/222/14 165/327/14 167/219/14
f 160/222/1 161/328/1 169/223/1
f 173/225/3 172/229/3 190/226/3
f 173/225/4 170/329/4 88/330/4
f 170/329/4 87/331/4 88/330/4
f 88/330/4 89/332/4 173/225/4
f 89/332/4 79/228/4 173/225/4
f 171/230/13 170/333/13 173/225/13
f 170/231/3 178/238/3 80/232/3
f 117/233/3 118/334/3 170/231/3
f 118/334/3 87/335/3 170/231/3
f 177/234/4 176/336/4 192/235/4
f 170/237/15 175/337/15 177/234/15
f 170/237/1 171/338/1 179/239/1
